<svg width="600" height="600" viewBox="0 0 600 600" fill="none" xmlns="http://www.w3.org/2000/svg">
<path d="M225.809 143.339L290.204 143.24L290.34 229.214L225.944 229.313L225.809 143.339Z" fill="#059669"/>
<path d="M225.944 230.157C225.71 230.157 225.512 230.074 225.35 229.912C225.184 229.745 225.1 229.548 225.1 229.318L224.965 143.339C224.965 143.105 225.048 142.907 225.215 142.745C225.376 142.579 225.574 142.495 225.809 142.495L290.204 142.396C290.439 142.396 290.637 142.475 290.803 142.641C290.965 142.808 291.048 143.006 291.048 143.235L291.184 229.214C291.184 229.443 291.1 229.646 290.939 229.808C290.772 229.975 290.574 230.058 290.34 230.058L225.944 230.157ZM226.652 144.178L226.788 228.469L289.496 228.37L289.366 144.084L226.652 144.178Z" fill="#065F46"/>
<path d="M229.035 146.557L286.983 146.463L287.108 225.994L229.16 226.083L229.035 146.557Z" fill="white"/>
<path d="M245.613 151.074L270.421 151.037V152.719L245.618 152.761L245.613 151.074Z" fill="#065F46"/>
<path d="M233.23 161.105L266.001 161.053V162.74L233.236 162.792L233.23 161.105Z" fill="#065F46"/>
<path d="M276.885 164.39C276.547 164.39 276.302 164.239 276.141 163.942L273.938 159.775L275.427 158.984L276.875 161.718L279.464 156.635L280.964 157.4L277.635 163.932C277.484 164.234 277.234 164.39 276.891 164.39H276.885Z" fill="#065F46"/>
<path d="M233.25 174.302L266.021 174.25V175.938L233.255 175.99L233.25 174.302Z" fill="#065F46"/>
<path d="M276.905 177.589C276.566 177.589 276.322 177.438 276.16 177.141L273.957 172.975L275.447 172.183L276.889 174.917L279.483 169.834L280.983 170.6L277.655 177.131C277.504 177.433 277.254 177.589 276.91 177.589H276.905Z" fill="#065F46"/>
<path d="M233.27 187.499L266.04 187.447V189.135L233.275 189.187L233.27 187.499Z" fill="#065F46"/>
<path d="M276.928 190.786C276.59 190.786 276.345 190.635 276.184 190.339L273.98 186.172L275.47 185.38L276.913 188.115L279.507 183.031L281.007 183.797L277.678 190.328C277.527 190.63 277.277 190.786 276.934 190.786H276.928Z" fill="#065F46"/>
<path d="M233.293 200.699L266.064 200.646V202.334L233.298 202.386L233.293 200.699Z" fill="#065F46"/>
<path d="M276.948 203.984C276.609 203.984 276.359 203.833 276.203 203.536L274 199.369L275.49 198.577L276.932 201.312L279.526 196.229L281.026 196.994L277.698 203.525C277.547 203.827 277.297 203.984 276.953 203.984H276.948Z" fill="#065F46"/>
<path d="M233.312 213.896L266.078 213.844L266.083 215.531L233.318 215.583L233.312 213.896Z" fill="#065F46"/>
<path d="M276.969 217.183C276.63 217.183 276.38 217.032 276.224 216.735L274.016 212.568L275.51 211.777L276.953 214.511L279.547 209.428L281.047 210.193L277.719 216.725C277.568 217.027 277.318 217.183 276.974 217.183H276.969Z" fill="#065F46"/>
<path d="M387.062 226.636C391.192 224.084 393.354 217.844 392.026 211.214C390.646 204.344 385.974 199.313 380.984 198.834C380.505 196.266 377.093 194.277 372.953 194.277C371.869 194.271 370.807 194.412 369.76 194.693C366.448 189.563 357.151 185.865 346.192 185.865C332.458 185.865 321.323 191.673 321.323 198.834C321.323 203.433 325.911 207.469 332.828 209.771C332.479 209.74 332.125 209.709 331.771 209.693C319.119 209.141 308.369 219.975 307.765 233.891C307.156 247.803 316.922 259.532 329.573 260.084C335.869 260.36 341.698 257.813 346.036 253.469C350.343 260.787 359.015 265.792 369.021 265.792C383.317 265.792 394.906 255.579 394.906 242.985C394.906 236.568 391.896 230.777 387.062 226.636Z" fill="#065F46"/>
<path d="M315.303 273L306.267 275.583L289.371 321.99L305.199 331.156L320.074 300.5L315.303 273Z" fill="white"/>
<path d="M305.198 332.001C305.047 332.001 304.906 331.959 304.771 331.886L288.948 322.719C288.771 322.62 288.646 322.475 288.578 322.282C288.505 322.089 288.505 321.896 288.578 321.704L305.474 275.292C305.573 275.027 305.76 274.85 306.036 274.771L315.073 272.193C315.313 272.12 315.536 272.157 315.75 272.287C315.964 272.422 316.089 272.61 316.13 272.86L320.901 300.36C320.932 300.537 320.906 300.709 320.828 300.87L305.953 331.521C305.802 331.839 305.547 332.001 305.198 332.001ZM290.401 321.615L304.833 329.969L319.193 300.376L314.63 274.068L306.911 276.277L290.401 321.615Z" fill="#065F46"/>
<path d="M312.276 273.844L319.516 320.354L307.734 376.068H377.49L373.365 321.563L377.49 274.635L345.281 264.641L312.276 273.844Z" fill="white"/>
<path d="M376.566 375.022L372.525 321.631C372.52 321.584 372.52 321.537 372.525 321.49L376.592 275.24L345.27 265.522L312.504 274.657L312.051 273.032L345.051 263.829C345.212 263.787 345.374 263.787 345.53 263.839L377.738 273.834C377.931 273.891 378.077 274.006 378.191 274.167C378.301 274.334 378.348 274.516 378.327 274.714L374.207 321.568L378.243 374.897L376.566 375.022Z" fill="#065F46"/>
<path d="M308.561 376.24L306.91 375.891L318.66 320.333L315.259 298.479L316.926 298.219L320.348 320.224C320.363 320.328 320.363 320.427 320.342 320.526L308.561 376.24Z" fill="#065F46"/>
<path d="M345.637 256.469L319.371 271.865L330.048 275.391L346.236 307.521L358.251 275.036L367.579 271.563L345.637 256.469Z" fill="white"/>
<path d="M346.234 308.364C345.885 308.364 345.635 308.208 345.479 307.901L329.453 276.083L319.104 272.666C318.76 272.552 318.573 272.317 318.531 271.953C318.495 271.594 318.63 271.323 318.943 271.14L345.213 255.745C345.521 255.562 345.823 255.573 346.115 255.776L368.057 270.864C368.338 271.062 368.458 271.328 368.417 271.666C368.375 272.005 368.193 272.234 367.87 272.349L358.906 275.687L347.021 307.812C346.896 308.161 346.646 308.344 346.281 308.364C346.266 308.364 346.25 308.364 346.234 308.364ZM321.406 271.651L330.312 274.594C330.536 274.666 330.698 274.802 330.802 275.01L346.115 305.411L357.463 274.739C357.552 274.5 357.719 274.333 357.958 274.245L365.766 271.338L345.604 257.469L321.406 271.651Z" fill="#065F46"/>
<path d="M335.882 247.188L333.262 275.036L345.637 300.5L356.111 273.844L354.803 248.734L335.882 247.188Z" fill="white"/>
<path d="M345.635 301.344C345.287 301.344 345.031 301.188 344.88 300.87L332.505 275.401C332.438 275.261 332.406 275.115 332.422 274.959L335.042 247.11C335.063 246.881 335.162 246.693 335.339 246.542C335.516 246.396 335.719 246.329 335.948 246.349L354.87 247.896C355.078 247.912 355.26 247.995 355.406 248.146C355.552 248.303 355.63 248.48 355.641 248.693L356.953 273.803C356.958 273.922 356.938 274.042 356.896 274.151L346.422 300.808C346.287 301.151 346.037 301.329 345.672 301.344C345.662 301.344 345.651 301.344 345.635 301.344ZM334.125 274.881L345.557 298.407L355.26 273.709L354 249.516L336.641 248.099L334.125 274.881Z" fill="#065F46"/>
<path d="M336.474 224.619C336.474 225.119 336.437 225.619 336.365 226.109C336.286 226.604 336.177 227.083 336.031 227.546C335.885 228.01 335.703 228.452 335.49 228.869C335.281 229.291 335.036 229.676 334.766 230.031C334.495 230.385 334.203 230.702 333.885 230.984C333.563 231.26 333.229 231.499 332.875 231.692C332.521 231.885 332.156 232.025 331.781 232.124C331.406 232.223 331.026 232.275 330.646 232.275C330.26 232.275 329.88 232.223 329.505 232.124C329.13 232.025 328.766 231.885 328.411 231.692C328.057 231.499 327.724 231.26 327.406 230.984C327.083 230.702 326.792 230.385 326.521 230.031C326.25 229.676 326.01 229.291 325.797 228.869C325.583 228.452 325.401 228.01 325.255 227.546C325.109 227.083 325 226.604 324.927 226.109C324.849 225.619 324.812 225.119 324.812 224.619C324.812 224.114 324.849 223.619 324.927 223.124C325 222.63 325.109 222.15 325.255 221.687C325.401 221.223 325.583 220.781 325.797 220.364C326.01 219.947 326.25 219.562 326.521 219.202C326.792 218.848 327.083 218.531 327.406 218.249C327.724 217.973 328.057 217.739 328.411 217.546C328.766 217.354 329.13 217.208 329.505 217.109C329.88 217.01 330.26 216.963 330.646 216.963C331.026 216.963 331.406 217.01 331.781 217.109C332.156 217.208 332.521 217.354 332.875 217.546C333.229 217.739 333.563 217.973 333.885 218.249C334.203 218.531 334.495 218.848 334.766 219.202C335.036 219.562 335.281 219.947 335.49 220.364C335.703 220.781 335.885 221.223 336.031 221.687C336.177 222.15 336.286 222.63 336.365 223.124C336.437 223.619 336.474 224.114 336.474 224.619Z" fill="white"/>
<path d="M330.646 233.114C326.964 233.114 323.969 229.301 323.969 224.619C323.969 219.932 326.964 216.119 330.646 216.119C334.323 216.119 337.318 219.932 337.318 224.619C337.318 229.301 334.323 233.114 330.646 233.114ZM330.646 217.807C327.896 217.807 325.656 220.859 325.656 224.619C325.656 228.374 327.896 231.432 330.646 231.432C333.396 231.432 335.63 228.374 335.63 224.619C335.63 220.859 333.396 217.807 330.646 217.807Z" fill="#065F46"/>
<path d="M373.563 233.984C373.35 234.911 373.084 235.843 372.782 236.775C368.006 251.406 354.621 260.156 342.881 256.322C331.147 252.489 325.506 237.525 330.287 222.895C330.933 220.9 331.756 218.984 332.756 217.14C332.756 217.14 341.001 208.541 356.991 207.432C359.48 215.635 364.35 226.661 373.563 233.984Z" fill="white"/>
<path d="M348.589 258.074C346.547 258.079 344.557 257.761 342.62 257.126C330.464 253.152 324.568 237.678 329.485 222.631C330.146 220.589 330.99 218.626 332.016 216.74C332.052 216.673 332.094 216.615 332.146 216.558C332.495 216.199 340.802 207.714 356.927 206.589C357.125 206.579 357.302 206.626 357.464 206.74C357.625 206.85 357.735 207.001 357.797 207.188C360.203 215.121 364.985 226.095 374.089 233.329C374.365 233.548 374.464 233.834 374.386 234.178C374.167 235.105 373.901 236.063 373.583 237.037C371.214 244.292 366.708 250.381 360.901 254.178C356.958 256.756 352.735 258.074 348.589 258.074ZM333.438 217.652C332.49 219.417 331.703 221.251 331.083 223.157C326.458 237.318 331.87 251.839 343.141 255.522C348.573 257.298 354.552 256.318 359.979 252.766C365.469 249.183 369.729 243.407 371.979 236.516C372.224 235.766 372.438 235.027 372.62 234.308C363.693 227.006 358.88 216.303 356.38 208.324C342.146 209.522 334.281 216.829 333.438 217.652Z" fill="#065F46"/>
<path d="M373.038 234.646C363.6 227.146 358.663 215.839 356.184 207.677L357.798 207.188C360.204 215.12 364.986 226.094 374.09 233.328L373.038 234.646Z" fill="#065F46"/>
<path d="M333.363 217.723L332.145 216.557C332.493 216.197 340.801 207.713 356.926 206.588L357.046 208.27C341.603 209.348 333.441 217.64 333.363 217.723Z" fill="#065F46"/>
<path d="M342.043 224.453L343.512 220.922L345.069 221.568L343.6 225.099L342.043 224.453Z" fill="#065F46"/>
<path d="M356.973 231.223L358.441 227.697L359.999 228.343L358.53 231.874L356.973 231.223Z" fill="#065F46"/>
<path d="M348.495 238.197C347.953 238.197 345.339 238.015 339.526 234.885C339.162 234.687 339.021 234.385 339.099 233.979C339.177 233.572 339.427 233.348 339.839 233.301C345.094 232.749 352.365 223.713 352.438 223.619L353.755 224.671C353.479 225.015 347.693 232.208 342.26 234.39C346.667 236.531 348.474 236.515 348.495 236.515L348.573 238.197C348.557 238.197 348.531 238.197 348.495 238.197Z" fill="#065F46"/>
<path d="M347.215 219.245C343.632 217.266 341.225 219.089 341.126 219.172L340.074 217.855C340.21 217.745 343.423 215.224 348.033 217.771L347.215 219.245Z" fill="#065F46"/>
<path d="M362.292 228.531C361.99 225.494 358.891 223.984 358.859 223.973L359.578 222.447C359.74 222.52 363.568 224.359 363.969 228.359L362.292 228.531Z" fill="#065F46"/>
<path d="M347.99 243.026C346.99 243.026 346.01 242.901 345.047 242.641L345.516 241.026L345.281 241.833L345.516 241.021C345.568 241.036 350.63 242.443 352.349 239.125L353.844 239.901C352.521 242.453 349.995 243.026 347.99 243.026Z" fill="#065F46"/>
<path d="M279.348 266.948L265.233 251.812C265.233 251.812 264.223 255.234 266.067 258.141C267.91 261.047 271.186 265.661 271.186 265.661L279.348 266.948Z" fill="white"/>
<path d="M240.027 251.031L251.866 267.656L269.178 271.948L279.158 298.833L292.116 290.906L279.35 266.948L266.387 262.354L254.861 262.458C254.861 262.458 248.142 251.5 240.027 251.031Z" fill="white"/>
<path d="M279.158 299.678C278.767 299.678 278.507 299.495 278.366 299.131L268.543 272.657L251.663 268.475C251.46 268.428 251.298 268.318 251.178 268.146L239.34 251.521C239.137 251.235 239.116 250.933 239.288 250.626C239.46 250.318 239.72 250.173 240.074 250.193C247.715 250.631 253.975 259.553 255.319 261.61L266.382 261.511C266.48 261.511 266.574 261.527 266.668 261.558L273.991 264.157L273.423 265.745L266.246 263.199L254.866 263.303C254.553 263.298 254.314 263.162 254.142 262.902C254.079 262.803 248.616 254.016 241.887 252.193L252.371 266.912L269.382 271.131C269.668 271.199 269.866 271.376 269.97 271.652L279.59 297.584L290.996 290.605L278.605 267.344L280.095 266.553L292.861 290.511C292.965 290.709 292.986 290.912 292.928 291.131C292.871 291.344 292.746 291.511 292.553 291.626L279.6 299.553C279.465 299.636 279.319 299.678 279.158 299.678Z" fill="#065F46"/>
<path d="M246.613 246.119L254.655 264.77L260.296 264.156C260.296 264.156 251.697 247.4 246.613 246.119Z" fill="white"/>
<path d="M259.547 264.542C257.563 260.682 252.308 251.469 248.396 248.12L254.933 263.286L253.386 263.953L245.839 246.453C245.703 246.13 245.745 245.838 245.974 245.573C246.198 245.307 246.485 245.213 246.823 245.302C252.11 246.635 260.146 262.021 261.047 263.771L259.547 264.542Z" fill="#065F46"/>
<path d="M366.538 335.355L331.928 339.844L314.621 333.896L297.845 341.167L288.199 348.912C288.199 348.912 294.605 351.204 300.553 345.261C304.918 344.167 314.001 342.777 314.001 342.777L310.559 344.266C310.559 344.266 302.533 346.699 302.533 349.35C321.095 349.35 326.376 348.912 326.376 348.912H350.158L366.538 335.355Z" fill="white"/>
<path d="M291.308 350.203C289.349 350.203 288.037 349.75 287.917 349.703C287.605 349.594 287.422 349.375 287.365 349.052C287.313 348.724 287.412 348.458 287.672 348.255L297.313 340.505C297.375 340.458 297.438 340.422 297.506 340.391L314.287 333.125C314.485 333.036 314.688 333.031 314.896 333.099L332.016 338.984L366.427 334.516C366.615 334.495 366.792 334.526 366.954 334.62C367.115 334.713 367.235 334.844 367.313 335.016C367.386 335.187 367.401 335.365 367.36 335.547C367.313 335.729 367.219 335.88 367.073 336L350.693 349.562C350.537 349.687 350.36 349.755 350.157 349.755H326.412C325.886 349.797 320.339 350.187 302.532 350.187C302.297 350.187 302.099 350.109 301.938 349.943C301.771 349.776 301.688 349.578 301.688 349.349C301.688 347.516 304.089 345.974 306.438 344.901C304.454 345.266 302.464 345.661 300.98 346.021C297.474 349.437 293.849 350.203 291.308 350.203ZM290.115 348.453C292.256 348.693 296.172 348.443 299.954 344.667C300.063 344.552 300.193 344.479 300.344 344.443C304.704 343.349 313.5 342 313.875 341.943C314.084 341.911 314.276 341.953 314.459 342.068C314.636 342.182 314.756 342.338 314.813 342.547C314.87 342.75 314.855 342.948 314.766 343.135C314.672 343.328 314.532 343.469 314.334 343.552L310.891 345.036C310.86 345.052 310.829 345.062 310.797 345.073C307.964 345.932 304.969 347.349 303.839 348.505C321.073 348.484 326.256 348.078 326.308 348.073C326.334 348.068 326.355 348.068 326.375 348.068H349.855L363.75 336.562L332.037 340.682C331.907 340.698 331.776 340.682 331.651 340.641L314.657 334.802L298.282 341.896L290.115 348.453Z" fill="#065F46"/>
<path d="M336.715 335.251L337.824 354.407L384.329 350.001C384.975 349.938 385.605 349.813 386.225 349.626C386.84 349.438 387.434 349.188 388.001 348.876C388.569 348.568 389.1 348.204 389.595 347.787C390.09 347.37 390.538 346.907 390.939 346.396C391.34 345.891 391.684 345.344 391.975 344.766C392.267 344.188 392.496 343.589 392.663 342.964C392.829 342.339 392.934 341.704 392.975 341.058C393.012 340.412 392.986 339.766 392.897 339.126L383.84 275.589L373.392 273.365L369.319 297.407L371.465 332.417L336.715 335.251Z" fill="white"/>
<path d="M337.823 355.249C337.599 355.249 337.407 355.176 337.245 355.02C337.084 354.869 336.995 354.682 336.985 354.458L335.87 335.296C335.86 335.067 335.927 334.869 336.079 334.697C336.23 334.52 336.417 334.426 336.646 334.411L370.568 331.64L368.745 301.781L370.427 301.676L372.302 332.364C372.318 332.593 372.25 332.791 372.099 332.963C371.948 333.14 371.761 333.234 371.532 333.255L337.605 336.02L338.615 353.484L384.651 349.119C385.209 349.067 385.761 348.958 386.302 348.796C386.839 348.63 387.36 348.411 387.855 348.14C388.349 347.874 388.813 347.557 389.24 347.192C389.672 346.827 390.063 346.426 390.412 345.984C390.761 345.536 391.063 345.067 391.313 344.562C391.568 344.057 391.766 343.531 391.912 342.989C392.063 342.442 392.151 341.89 392.183 341.327C392.219 340.765 392.198 340.202 392.115 339.645L383.084 276.291L373.214 274.187L373.563 272.541L384.011 274.765C384.396 274.848 384.615 275.083 384.672 275.468L393.787 339.406C393.881 340.077 393.907 340.749 393.87 341.426C393.829 342.104 393.719 342.77 393.542 343.426C393.365 344.083 393.125 344.713 392.823 345.317C392.516 345.921 392.157 346.494 391.735 347.025C391.318 347.557 390.849 348.041 390.329 348.479C389.813 348.916 389.256 349.296 388.662 349.624C388.063 349.947 387.443 350.208 386.792 350.406C386.146 350.604 385.485 350.734 384.808 350.801L337.901 355.249C337.875 355.249 337.849 355.249 337.823 355.249Z" fill="#065F46"/>
<path d="M371.051 333.152L371.874 331.678L383.535 338.204L382.712 339.673L371.051 333.152Z" fill="#065F46"/>
<path d="M343.973 314.531H348.967V316.219H343.973V314.531Z" fill="#065F46"/>
<path d="M343.973 327.385H348.967V329.072H343.973V327.385Z" fill="#065F46"/>
<path d="M366.542 307.214H353.609C353.38 307.214 353.177 307.131 353.016 306.969C352.849 306.803 352.766 306.605 352.766 306.37V298.834C352.766 298.605 352.849 298.402 353.016 298.24C353.177 298.074 353.38 297.99 353.609 297.99H366.542C366.776 297.99 366.974 298.074 367.141 298.24C367.302 298.402 367.385 298.605 367.385 298.834V306.37C367.385 306.605 367.302 306.803 367.141 306.969C366.974 307.131 366.776 307.214 366.542 307.214ZM354.453 305.527H365.698V299.678H354.453V305.527Z" fill="#065F46"/>
<path d="M316.203 515.015H340.604L337.922 500.52C337.922 500.52 333.974 491.322 328.443 491.322C322.917 491.322 320.547 501.213 320.547 501.213L316.203 515.015Z" fill="#10B981"/>
<mask id="mask0_176_175" style="mask-type:luminance" maskUnits="userSpaceOnUse" x="315" y="490" width="27" height="26">
<path d="M315.332 490H341.999V515.943H315.332V490Z" fill="white"/>
</mask>
<g mask="url(#mask0_176_175)">
<path d="M340.603 515.859H316.202C316.066 515.859 315.941 515.827 315.821 515.765C315.702 515.708 315.603 515.619 315.525 515.515C315.446 515.406 315.394 515.286 315.374 515.15C315.348 515.02 315.358 514.89 315.4 514.76L319.733 500.989C319.915 500.249 322.426 490.479 328.441 490.479C334.457 490.479 338.525 499.791 338.691 500.187C338.717 500.244 338.738 500.307 338.749 500.364L341.431 514.859C341.457 514.984 341.452 515.109 341.42 515.229C341.389 515.348 341.332 515.458 341.254 515.551C341.17 515.65 341.077 515.723 340.962 515.775C340.848 515.833 340.728 515.859 340.603 515.859ZM317.353 514.171H339.592L337.108 500.77C336.707 499.885 333.092 492.166 328.441 492.166C323.644 492.166 321.389 501.317 321.368 501.411C321.363 501.432 321.358 501.447 321.353 501.468L317.353 514.171Z" fill="#065F46"/>
</g>
<path d="M319.066 456.703L323.004 498.667C323.254 501.339 325.212 503.609 327.853 504.063C328.921 504.25 330.145 504.161 331.493 503.573C333.618 502.646 334.973 500.516 335.035 498.198C335.993 461.906 338.202 461.906 338.202 461.906L319.066 456.703Z" fill="white"/>
<path d="M328.858 504.995C328.473 504.995 328.092 504.958 327.712 504.896C324.738 504.38 322.457 501.854 322.165 498.745L318.228 456.781C318.212 456.641 318.233 456.51 318.285 456.38C318.337 456.255 318.42 456.146 318.525 456.057C318.629 455.969 318.749 455.906 318.884 455.88C319.019 455.849 319.155 455.849 319.29 455.885L338.42 461.094C338.759 461.188 338.957 461.401 339.025 461.745C339.092 462.089 338.988 462.365 338.712 462.578C338.389 463.151 336.686 467.599 335.879 498.219C335.806 500.901 334.217 503.307 331.827 504.349C330.884 504.771 329.894 504.984 328.858 504.995ZM320.019 457.833L323.842 498.583C324.066 500.938 325.775 502.849 327.999 503.234C329.092 503.406 330.144 503.266 331.155 502.802C332.946 502.021 334.139 500.203 334.191 498.177C334.592 483.089 335.243 472.375 336.144 466.318C336.42 464.432 336.686 463.219 336.952 462.443L320.019 457.833Z" fill="#065F46"/>
<path d="M368.901 515.015H344.5L347.182 500.52C347.182 500.52 351.13 491.322 356.661 491.322C362.187 491.322 364.557 501.213 364.557 501.213L368.901 515.015Z" fill="#10B981"/>
<mask id="mask1_176_175" style="mask-type:luminance" maskUnits="userSpaceOnUse" x="343" y="490" width="27" height="26">
<path d="M343.332 490H369.999V515.943H343.332V490Z" fill="white"/>
</mask>
<g mask="url(#mask1_176_175)">
<path d="M368.9 515.859H344.499C344.374 515.859 344.254 515.833 344.14 515.775C344.025 515.723 343.931 515.65 343.848 515.551C343.77 515.458 343.713 515.348 343.681 515.229C343.65 515.109 343.645 514.984 343.671 514.859L346.353 500.364C346.364 500.307 346.385 500.244 346.405 500.187C346.577 499.791 350.645 490.479 356.661 490.479C362.676 490.479 365.187 500.249 365.369 500.989L369.702 514.76C369.744 514.89 369.754 515.02 369.728 515.15C369.707 515.286 369.655 515.406 369.577 515.515C369.499 515.619 369.4 515.708 369.28 515.765C369.161 515.827 369.03 515.859 368.9 515.859ZM345.51 514.171H367.749L363.749 501.468C363.744 501.447 363.739 501.432 363.733 501.411C363.713 501.317 361.457 492.166 356.661 492.166C352.01 492.166 348.39 499.885 347.994 500.77L345.51 514.171Z" fill="#065F46"/>
</g>
<path d="M366.038 456.703L362.1 498.667C361.85 501.339 359.892 503.609 357.251 504.063C356.184 504.25 354.96 504.161 353.611 503.573C351.486 502.646 350.132 500.516 350.069 498.198C349.111 461.906 346.902 461.906 346.902 461.906L366.038 456.703Z" fill="white"/>
<path d="M356.246 504.995C355.209 504.984 354.22 504.771 353.277 504.349C350.886 503.307 349.298 500.901 349.225 498.219C348.73 479.516 347.902 470.682 347.293 466.568C346.959 464.302 346.668 463.26 346.48 462.781C346.444 462.688 346.407 462.615 346.386 462.573C346.11 462.359 346.011 462.083 346.079 461.745C346.147 461.401 346.345 461.188 346.683 461.094L365.814 455.885C365.949 455.849 366.084 455.849 366.22 455.88C366.355 455.906 366.475 455.969 366.579 456.057C366.683 456.146 366.767 456.255 366.819 456.38C366.871 456.51 366.892 456.641 366.876 456.781L362.939 498.745C362.647 501.854 360.366 504.38 357.392 504.896C357.011 504.958 356.631 504.995 356.246 504.995ZM348.152 462.443C348.418 463.219 348.683 464.432 348.959 466.318C349.855 472.375 350.511 483.089 350.912 498.177C350.965 500.203 352.157 502.021 353.949 502.802C354.959 503.266 356.011 503.411 357.105 503.234C359.329 502.849 361.037 500.938 361.261 498.583L365.084 457.833L348.152 462.443Z" fill="#065F46"/>
<path d="M279.056 268.136L265.811 253.688C265.764 254.808 265.915 256.329 266.78 257.688C268.592 260.542 270.452 263.141 270.467 263.167L269.098 264.147C269.077 264.121 267.191 261.485 265.358 258.595C263.332 255.402 264.379 251.73 264.42 251.574C264.514 251.261 264.723 251.063 265.04 250.99C265.358 250.917 265.629 251.001 265.853 251.24L280.295 266.996L279.056 268.136Z" fill="#065F46"/>
<path d="M289.368 278.193L270.254 286.235L289.952 331.563C292.681 337.85 301.509 338.105 304.598 331.985L309.65 321.975L289.368 278.193Z" fill="white"/>
<path d="M297.385 337.272C297.297 337.272 297.208 337.272 297.115 337.266C296.266 337.251 295.438 337.11 294.63 336.85C293.818 336.594 293.063 336.225 292.359 335.751C291.656 335.272 291.031 334.709 290.49 334.053C289.953 333.397 289.516 332.678 289.177 331.897L269.479 286.574C269.385 286.355 269.385 286.141 269.474 285.923C269.557 285.704 269.714 285.553 269.927 285.459L289.042 277.417C289.25 277.329 289.464 277.329 289.672 277.407C289.885 277.49 290.036 277.636 290.135 277.839L305.292 310.558L303.76 311.266L288.948 279.287L271.37 286.683L290.724 331.225C291 331.86 291.354 332.438 291.797 332.969C292.234 333.496 292.74 333.954 293.313 334.339C293.88 334.725 294.495 335.027 295.151 335.235C295.807 335.449 296.479 335.563 297.167 335.584C297.854 335.605 298.531 335.527 299.198 335.355C299.865 335.178 300.495 334.917 301.083 334.563C301.677 334.214 302.208 333.787 302.677 333.282C303.146 332.777 303.536 332.219 303.844 331.605L309.63 320.089L311.135 320.844L305.349 332.36C304.984 333.105 304.521 333.777 303.964 334.391C303.406 335.001 302.776 335.522 302.068 335.954C301.365 336.391 300.615 336.719 299.818 336.943C299.021 337.167 298.214 337.277 297.385 337.272Z" fill="#065F46"/>
<path d="M263.332 354.412H488.618V481.928H263.332V354.412Z" fill="white"/>
<path d="M488.621 482.771H263.335C263.105 482.771 262.908 482.688 262.741 482.527C262.574 482.36 262.496 482.162 262.496 481.928V354.412C262.496 354.183 262.574 353.98 262.741 353.818C262.908 353.652 263.105 353.568 263.335 353.568H488.621C488.855 353.568 489.053 353.652 489.215 353.818C489.382 353.98 489.465 354.183 489.465 354.412V481.928C489.465 482.162 489.382 482.36 489.215 482.527C489.053 482.688 488.855 482.771 488.621 482.771ZM264.178 481.084H487.777V355.256H264.178V481.084Z" fill="#065F46"/>
<path d="M482.551 354.412H494.686V515.016H482.551V354.412Z" fill="white"/>
<mask id="mask2_176_175" style="mask-type:luminance" maskUnits="userSpaceOnUse" x="480" y="352" width="17" height="164">
<path d="M480.668 352.666H496.668V515.942H480.668V352.666Z" fill="white"/>
</mask>
<g mask="url(#mask2_176_175)">
<path d="M494.688 515.858H482.553C482.318 515.858 482.12 515.775 481.954 515.608C481.792 515.447 481.709 515.249 481.709 515.014V354.41C481.709 354.181 481.792 353.978 481.954 353.816C482.12 353.65 482.318 353.566 482.553 353.566H494.688C494.923 353.566 495.12 353.65 495.282 353.816C495.449 353.978 495.532 354.181 495.532 354.41V515.014C495.532 515.249 495.449 515.447 495.282 515.608C495.12 515.775 494.923 515.858 494.688 515.858ZM483.396 514.171H493.844V355.254H483.396V514.171Z" fill="#065F46"/>
</g>
<path d="M257.266 354.412H269.401V515.016H257.266V354.412Z" fill="white"/>
<mask id="mask3_176_175" style="mask-type:luminance" maskUnits="userSpaceOnUse" x="255" y="352" width="17" height="164">
<path d="M255.332 352.666H271.332V515.942H255.332V352.666Z" fill="white"/>
</mask>
<g mask="url(#mask3_176_175)">
<path d="M269.4 515.858H257.264C257.035 515.858 256.837 515.775 256.671 515.608C256.504 515.447 256.426 515.249 256.426 515.014V354.41C256.426 354.181 256.504 353.978 256.671 353.816C256.837 353.65 257.035 353.566 257.264 353.566H269.4C269.634 353.566 269.832 353.65 269.999 353.816C270.16 353.978 270.243 354.181 270.243 354.41V515.014C270.243 515.249 270.16 515.447 269.999 515.608C269.832 515.775 269.634 515.858 269.4 515.858ZM258.108 514.171H268.561V355.254H258.108V514.171Z" fill="#065F46"/>
</g>
<path d="M240.559 349.197H509.163V359.624H240.559V349.197Z" fill="white"/>
<path d="M509.163 360.469H240.559C240.324 360.469 240.126 360.385 239.96 360.224C239.798 360.057 239.715 359.859 239.715 359.625V349.198C239.715 348.969 239.798 348.771 239.96 348.604C240.126 348.438 240.324 348.359 240.559 348.359H509.163C509.397 348.359 509.595 348.438 509.762 348.604C509.923 348.771 510.007 348.969 510.007 349.198V359.625C510.007 359.859 509.923 360.057 509.762 360.224C509.595 360.385 509.397 360.469 509.163 360.469ZM241.402 358.781H508.319V350.042H241.402V358.781Z" fill="#065F46"/>
<path d="M412.043 84.8535H524.204V242.239H412.043V84.8535Z" fill="white"/>
<path d="M499.48 115.631C499.48 115.631 487.043 111.23 475.184 124.209C488.835 125.553 499.48 115.631 499.48 115.631Z" fill="white"/>
<path d="M496.719 112.687C496.719 112.687 508.635 125.437 498.229 133.718C500.401 135.02 500.078 135.02 500.078 135.02C500.078 135.02 511.599 125.854 499.479 111.916L496.719 112.687Z" fill="white"/>
<path d="M501.532 132.266C501.532 132.266 477.704 123.219 479.49 148.26C481.037 169.911 517.532 167.615 516.969 147.365C516.412 127.12 501.532 132.266 501.532 132.266Z" fill="white"/>
<path d="M501.532 132.266C501.532 132.266 477.704 123.219 479.49 148.26C481.037 169.911 517.532 167.615 516.969 147.365C516.412 127.12 501.532 132.266 501.532 132.266Z" fill="white"/>
<mask id="mask4_176_175" style="mask-type:luminance" maskUnits="userSpaceOnUse" x="410" y="83" width="115" height="161">
<path d="M410 83.9434H524.938V243.334H410V83.9434Z" fill="white"/>
</mask>
<g mask="url(#mask4_176_175)">
<path d="M524.202 243.085H412.041C411.807 243.085 411.609 243.001 411.447 242.84C411.281 242.673 411.197 242.475 411.197 242.241V84.8555C411.197 84.6263 411.281 84.4232 411.447 84.2617C411.609 84.0951 411.807 84.0117 412.041 84.0117H524.202C524.437 84.0117 524.635 84.0951 524.801 84.2617C524.963 84.4232 525.046 84.6263 525.046 84.8555V242.241C525.046 242.475 524.963 242.673 524.801 242.84C524.635 243.001 524.437 243.085 524.202 243.085ZM412.885 241.397H523.359V85.6992H412.885V241.397Z" fill="#065F46"/>
</g>
<path d="M457.808 189.766C457.683 189.755 457.563 189.745 457.438 189.735C451.183 189.172 449.297 180.948 454.719 177.776L458.053 175.828C458.053 175.828 447.975 176.021 438.693 171.849C434.443 169.943 435.006 163.724 439.511 162.547L444.594 161.219C440.777 160.162 437.11 158.729 433.584 156.922C427.589 153.818 429.407 144.792 436.131 144.224C434.277 141.755 432.787 139.078 431.667 136.193C429.063 129.479 437.12 123.677 442.725 128.198C448.584 132.922 449.631 138.584 449.631 138.584L450.995 136.417C454.62 130.677 463.469 132.625 464.303 139.365C464.777 143.276 464.449 147.12 463.318 150.896L466.297 148.021C469.162 145.261 473.949 146.823 474.626 150.745C475.386 155.188 475.297 161.245 472.245 168.318C476.834 163.386 485.079 167.974 483.141 174.427C482.303 177.229 480.631 180.151 477.662 182.953C472.35 187.969 465.089 190.334 457.808 189.766Z" fill="white"/>
<path d="M459.932 190.688C459.203 190.688 458.474 190.662 457.739 190.605C457.614 190.594 457.489 190.584 457.364 190.574C454.125 190.282 451.578 188.053 450.869 184.891C450.166 181.756 451.515 178.678 454.297 177.047L455.104 176.574C451.38 176.329 444.724 175.485 438.349 172.62C437.802 172.37 437.307 172.047 436.864 171.641C436.421 171.24 436.047 170.782 435.744 170.266C435.442 169.745 435.229 169.199 435.099 168.61C434.968 168.027 434.927 167.438 434.979 166.839C435.031 166.245 435.172 165.672 435.401 165.115C435.63 164.563 435.937 164.058 436.328 163.6C436.713 163.146 437.161 162.756 437.666 162.438C438.172 162.12 438.713 161.881 439.297 161.73L441.494 161.157C438.64 160.204 435.875 159.042 433.192 157.667C430.125 156.079 428.578 152.86 429.255 149.469C429.838 146.542 431.895 144.37 434.656 143.631C433.125 141.396 431.864 139.021 430.88 136.501C429.557 133.094 430.619 129.495 433.588 127.329C436.583 125.136 440.38 125.225 443.255 127.542C447.265 130.777 449.109 134.417 449.906 136.563L450.281 135.969C450.724 135.266 451.265 134.641 451.901 134.105C452.536 133.568 453.239 133.141 454.01 132.818C454.776 132.501 455.578 132.303 456.406 132.23C457.234 132.152 458.057 132.209 458.869 132.386C459.682 132.568 460.448 132.865 461.172 133.282C461.89 133.699 462.531 134.219 463.093 134.834C463.656 135.449 464.109 136.131 464.458 136.891C464.807 137.646 465.036 138.438 465.14 139.261C465.51 142.282 465.406 145.287 464.823 148.271L465.713 147.412C466.484 146.667 467.395 146.178 468.442 145.938C469.489 145.693 470.52 145.74 471.541 146.079C472.562 146.412 473.427 146.985 474.125 147.797C474.828 148.61 475.27 149.542 475.453 150.605C476.317 155.631 475.849 160.797 474.052 165.995C476.317 164.995 478.796 165.36 480.625 166.412C483.63 168.136 484.937 171.376 483.948 174.672C482.974 177.917 481.052 180.912 478.239 183.568C473.385 188.152 466.807 190.688 459.932 190.688ZM458.052 174.985C458.239 174.985 458.411 175.042 458.562 175.157C458.713 175.277 458.812 175.422 458.864 175.61C458.911 175.792 458.901 175.969 458.833 176.146C458.76 176.324 458.64 176.459 458.474 176.558L455.145 178.506C452.552 180.021 452.088 182.61 452.515 184.527C452.64 185.11 452.854 185.662 453.156 186.178C453.458 186.693 453.838 187.146 454.286 187.542C454.739 187.933 455.239 188.245 455.791 188.48C456.343 188.709 456.916 188.85 457.51 188.891C457.635 188.902 457.75 188.912 457.869 188.922C465.057 189.485 472.057 187.089 477.083 182.344C479.677 179.891 481.442 177.146 482.333 174.188C483.25 171.131 481.536 168.876 479.786 167.87C477.989 166.844 475.099 166.49 472.864 168.891C472.724 169.042 472.552 169.131 472.349 169.152C472.145 169.178 471.958 169.136 471.786 169.021C471.614 168.912 471.494 168.756 471.437 168.558C471.38 168.365 471.39 168.172 471.468 167.985C473.968 162.199 474.75 156.449 473.791 150.886C473.661 150.136 473.349 149.475 472.849 148.896C472.354 148.324 471.739 147.917 471.015 147.678C470.291 147.443 469.562 147.407 468.817 147.579C468.078 147.751 467.432 148.1 466.88 148.626L463.901 151.501C463.765 151.636 463.599 151.709 463.411 151.73C463.218 151.756 463.041 151.714 462.88 151.615C462.713 151.516 462.599 151.376 462.531 151.199C462.463 151.021 462.453 150.839 462.505 150.657C463.604 146.995 463.927 143.266 463.468 139.469C463.062 136.188 460.651 134.516 458.531 134.037C456.395 133.563 453.484 134.053 451.708 136.87L450.343 139.032C450.135 139.355 449.843 139.48 449.468 139.407C449.093 139.339 448.869 139.11 448.802 138.735C448.791 138.683 447.718 133.308 442.192 128.855C439.442 126.636 436.375 127.381 434.583 128.688C432.812 129.98 431.192 132.641 432.448 135.891C433.541 138.693 434.989 141.292 436.791 143.704C437 143.964 437.036 144.251 436.906 144.558C436.77 144.87 436.536 145.037 436.203 145.068C432.937 145.339 431.312 147.787 430.911 149.797C430.51 151.803 431.073 154.672 433.968 156.172C437.437 157.949 441.052 159.355 444.802 160.402C444.989 160.449 445.14 160.547 445.26 160.699C445.38 160.85 445.437 161.021 445.437 161.214C445.437 161.407 445.38 161.579 445.265 161.73C445.145 161.881 444.994 161.985 444.807 162.032L439.718 163.365C437.64 163.907 436.77 165.61 436.656 167.021C436.541 168.412 437.104 170.214 439.036 171.084C448.026 175.12 457.937 174.99 458.036 174.985C458.041 174.985 458.047 174.985 458.052 174.985Z" fill="#065F46"/>
<path d="M442.906 142.464L444.292 141.506L472.646 182.396L471.26 183.36L442.906 142.464Z" fill="#065F46"/>
<path d="M455.267 167.115L454.944 183.115L454.022 228.923H429.647L428.725 183.115L428.402 167.115H455.267Z" fill="white"/>
<path d="M454.941 183.072L454.02 228.88H429.645L428.723 183.072H454.941Z" fill="#059669"/>
<path d="M454.02 229.766H429.645C429.416 229.766 429.224 229.683 429.057 229.527C428.895 229.365 428.812 229.167 428.807 228.938L427.557 167.131C427.552 166.896 427.635 166.693 427.796 166.527C427.963 166.355 428.166 166.271 428.401 166.271H455.265C455.505 166.271 455.703 166.355 455.869 166.527C456.036 166.693 456.114 166.896 456.109 167.131L454.859 228.938C454.859 229.167 454.77 229.365 454.609 229.527C454.442 229.683 454.25 229.766 454.02 229.766ZM430.474 228.079H453.192L454.406 167.959H429.26L430.474 228.079Z" fill="#065F46"/>
<path d="M499.48 115.631C499.48 115.631 487.043 111.23 475.184 124.209C488.835 125.553 499.48 115.631 499.48 115.631Z" fill="#065F46"/>
<path d="M496.719 112.687C496.719 112.687 508.635 125.437 498.229 133.718C500.401 135.02 500.078 135.02 500.078 135.02C500.078 135.02 511.599 125.854 499.479 111.916L496.719 112.687Z" fill="#065F46"/>
<path d="M501.532 132.266C501.532 132.266 477.704 123.219 479.49 148.26C481.037 169.911 517.532 167.615 516.969 147.365C516.412 127.12 501.532 132.266 501.532 132.266Z" fill="#059669"/>
<path d="M498 164.39C489.01 164.39 479.448 159.494 478.651 148.322C478.104 140.692 479.844 135.327 483.807 132.38C490.104 127.697 499.755 130.744 501.552 131.374C502.812 131.005 507.771 129.838 511.958 132.734C515.646 135.286 517.614 140.197 517.812 147.343C517.948 152.296 515.995 156.567 512.156 159.697C508.776 162.458 504.182 164.114 499.219 164.359C498.812 164.38 498.406 164.39 498 164.39ZM492.588 131.52C489.911 131.52 487.073 132.051 484.812 133.734C481.338 136.322 479.833 141.187 480.333 148.202C481.088 158.749 490.604 163.098 499.135 162.676C507.51 162.26 516.401 157.301 516.125 147.39C515.943 140.812 514.219 136.348 511 134.119C506.958 131.327 501.859 133.041 501.807 133.062C501.614 133.124 501.422 133.124 501.234 133.051C501.167 133.025 497.104 131.52 492.588 131.52Z" fill="#065F46"/>
<path d="M495.156 212.906C497.614 206.563 500.776 200.589 504.64 194.985C508.317 189.672 513.203 185.839 509.265 180.542C505.333 175.245 500.25 178.813 494.104 180.797C487.625 182.875 480.989 184.177 474.203 184.698C469.375 185.078 464.427 186.865 460.052 190.115C448.989 198.334 445.802 212.776 452.932 222.38C460.067 231.985 474.817 233.11 485.88 224.891C490.255 221.646 493.396 217.422 495.156 212.906Z" fill="#059669"/>
<path d="M469.791 231.235C469.151 231.235 468.51 231.209 467.87 231.162C461.396 230.667 455.854 227.73 452.255 222.886C444.859 212.923 448.13 197.923 459.547 189.438C463.916 186.199 468.958 184.266 474.135 183.86C480.859 183.339 487.427 182.053 493.843 179.996C495 179.621 496.125 179.188 497.213 178.772C501.927 176.954 506.38 175.24 509.942 180.042C513.51 184.839 510.583 188.605 507.479 192.595C506.765 193.516 506.026 194.47 505.338 195.464C501.51 201.016 498.38 206.933 495.937 213.214C494.052 218.053 490.75 222.329 486.38 225.569C481.416 229.256 475.593 231.235 469.791 231.235ZM504.218 178.61C502.474 178.61 500.416 179.345 497.817 180.345C496.708 180.772 495.562 181.209 494.364 181.6C487.817 183.699 481.12 185.011 474.271 185.542C469.406 185.923 464.666 187.74 460.552 190.792C449.88 198.72 446.765 212.667 453.609 221.881C456.911 226.324 462.021 229.027 467.995 229.48C474.015 229.938 480.187 228.069 485.375 224.214C489.489 221.162 492.599 217.147 494.37 212.605C496.854 206.199 500.052 200.162 503.948 194.506C504.666 193.47 505.422 192.501 506.151 191.563C509.5 187.251 511.26 184.641 508.593 181.048C507.281 179.287 505.896 178.61 504.218 178.61Z" fill="#065F46"/>
<path d="M456.809 219.506C451.272 212.053 454.022 200.61 462.928 193.99C466.439 191.386 470.47 189.834 474.585 189.511C481.746 188.959 488.746 187.584 495.585 185.386C496.892 184.97 498.09 184.506 499.251 184.058C504.397 182.079 504.631 182.391 505.397 183.417C506.163 184.449 506.392 184.761 503.006 189.115C502.246 190.1 501.454 191.115 500.678 192.24C496.6 198.157 493.262 204.459 490.658 211.157C489.163 215.001 486.512 218.412 483.001 221.016C474.095 227.636 462.345 226.959 456.809 219.506Z" fill="white"/>
<path d="M484.999 198.568C485.353 199.053 485.639 199.579 485.858 200.152C486.072 200.73 486.212 201.339 486.275 201.98C486.337 202.626 486.327 203.292 486.238 203.98C486.145 204.672 485.983 205.37 485.744 206.079C485.504 206.787 485.191 207.49 484.811 208.188C484.431 208.886 483.983 209.568 483.478 210.23C482.968 210.896 482.405 211.527 481.79 212.131C481.176 212.735 480.52 213.292 479.822 213.813C479.124 214.334 478.4 214.797 477.645 215.214C476.889 215.626 476.124 215.98 475.337 216.277C474.556 216.568 473.775 216.797 472.999 216.959C472.218 217.126 471.452 217.219 470.707 217.245C469.962 217.271 469.244 217.224 468.556 217.11C467.874 217.001 467.228 216.818 466.634 216.573C466.035 216.323 465.488 216.016 465.004 215.641C464.514 215.271 464.093 214.844 463.733 214.36C463.374 213.876 463.087 213.349 462.874 212.771C462.66 212.198 462.52 211.589 462.452 210.943C462.389 210.303 462.405 209.636 462.494 208.943C462.582 208.256 462.749 207.558 462.988 206.849C463.228 206.141 463.54 205.438 463.921 204.74C464.301 204.042 464.744 203.36 465.254 202.693C465.759 202.032 466.322 201.396 466.936 200.797C467.551 200.193 468.207 199.631 468.905 199.115C469.603 198.594 470.332 198.131 471.087 197.714C471.843 197.303 472.608 196.948 473.389 196.652C474.171 196.36 474.952 196.131 475.733 195.964C476.514 195.803 477.275 195.709 478.025 195.683C478.77 195.657 479.488 195.704 480.171 195.813C480.858 195.928 481.499 196.11 482.098 196.355C482.697 196.605 483.238 196.912 483.728 197.287C484.212 197.657 484.639 198.084 484.999 198.568Z" fill="#065F46"/>
<path d="M433.609 92.7812H502.635V100.219H433.609V92.7812Z" fill="#059669"/>
<path d="M502.635 101.063H433.609C433.38 101.063 433.177 100.985 433.016 100.819C432.849 100.652 432.766 100.454 432.766 100.22V92.7821C432.766 92.553 432.849 92.355 433.016 92.1884C433.177 92.0217 433.38 91.9384 433.609 91.9436H502.635C502.87 91.9384 503.068 92.0217 503.229 92.1884C503.396 92.355 503.479 92.553 503.479 92.7821V100.22C503.479 100.454 503.396 100.652 503.229 100.819C503.068 100.985 502.87 101.063 502.635 101.063ZM434.453 99.3811H501.792V93.6259H434.453V99.3811Z" fill="#065F46"/>
<path d="M105.71 415.287L104.918 515.136H111.741L118.09 415.287H105.71Z" fill="white"/>
<mask id="mask5_176_175" style="mask-type:luminance" maskUnits="userSpaceOnUse" x="103" y="414" width="17" height="102">
<path d="M103.332 414H119.332V515.943H103.332V414Z" fill="white"/>
</mask>
<g mask="url(#mask5_176_175)">
<path d="M111.739 515.979H104.916C104.682 515.979 104.484 515.895 104.317 515.729C104.156 515.562 104.072 515.364 104.072 515.13L104.869 415.281C104.869 415.051 104.952 414.854 105.114 414.692C105.281 414.525 105.479 414.447 105.708 414.447H118.088C118.327 414.447 118.536 414.536 118.702 414.713C118.869 414.89 118.942 415.098 118.926 415.343L112.583 515.192C112.567 515.411 112.479 515.598 112.317 515.749C112.156 515.906 111.963 515.979 111.739 515.979ZM105.765 514.291H110.947L117.187 416.13H106.546L105.765 514.291Z" fill="#065F46"/>
</g>
<path d="M174.113 415.287L174.91 515.136H168.087L161.738 415.287H174.113Z" fill="white"/>
<mask id="mask6_176_175" style="mask-type:luminance" maskUnits="userSpaceOnUse" x="160" y="414" width="17" height="102">
<path d="M160.668 414H176.668V515.943H160.668V414Z" fill="white"/>
</mask>
<g mask="url(#mask6_176_175)">
<path d="M174.913 515.979H168.09C167.866 515.979 167.673 515.906 167.512 515.749C167.35 515.598 167.262 515.411 167.246 515.192L160.902 415.343C160.887 415.098 160.96 414.89 161.126 414.713C161.293 414.536 161.496 414.447 161.741 414.447H174.116C174.35 414.447 174.548 414.525 174.71 414.692C174.876 414.854 174.96 415.051 174.96 415.281L175.751 515.13C175.757 515.364 175.673 515.562 175.507 515.729C175.345 515.895 175.147 515.979 174.913 515.979ZM168.882 514.291H174.059L173.283 416.13H162.642L168.882 514.291Z" fill="#065F46"/>
</g>
<path d="M206.199 461.146C205.611 462.126 202.272 491.381 202.272 491.381L208.116 501.376L198.345 505.714L187.668 499.839L189.902 489.417L189.121 462.126L206.199 461.146Z" fill="white"/>
<path d="M198.343 506.558C198.203 506.558 198.067 506.521 197.937 506.454L187.26 500.579C187.099 500.49 186.979 500.36 186.901 500.188C186.822 500.021 186.802 499.844 186.843 499.662L189.057 489.339L188.276 462.152C188.27 461.923 188.343 461.725 188.494 461.558C188.651 461.386 188.843 461.298 189.067 461.282L206.151 460.303C206.302 460.292 206.442 460.324 206.578 460.391C206.708 460.459 206.817 460.553 206.901 460.678C206.984 460.803 207.031 460.938 207.041 461.089C207.052 461.24 207.02 461.381 206.958 461.516C206.484 462.902 204.432 479.886 203.14 491.199L208.843 500.954C208.968 501.167 208.994 501.396 208.916 501.636C208.838 501.876 208.687 502.048 208.458 502.146L198.687 506.485C198.578 506.532 198.463 506.558 198.343 506.558ZM188.619 499.407L198.385 504.771L206.911 500.99L201.546 491.808C201.453 491.646 201.411 491.469 201.437 491.287C202.515 481.803 204.296 466.662 205.145 462.048L189.984 462.923L190.744 489.391C190.75 489.459 190.739 489.527 190.729 489.594L188.619 499.407Z" fill="#065F46"/>
<path d="M207.017 497.291L202.767 499.77L192.605 490.202L188.09 489.369C188.09 489.369 184.209 495.895 184.996 505.025L185.485 515.135H189.314L190.23 505.713L196.652 515.135H228.189L210.105 501.926L207.017 497.291Z" fill="#065F46"/>
<path d="M218.512 461.146C217.923 462.126 214.585 491.381 214.585 491.381L220.428 501.376L210.658 505.714L199.98 499.839L202.215 489.417L201.428 462.126L218.512 461.146Z" fill="white"/>
<path d="M210.656 506.558C210.51 506.558 210.374 506.521 210.249 506.454L199.572 500.579C199.406 500.49 199.286 500.36 199.208 500.188C199.135 500.021 199.114 499.844 199.15 499.662L201.369 489.339L200.588 462.152C200.577 461.923 200.65 461.725 200.807 461.558C200.963 461.386 201.15 461.298 201.38 461.282L218.463 460.303C218.609 460.292 218.755 460.324 218.885 460.391C219.02 460.459 219.13 460.553 219.213 460.678C219.296 460.803 219.343 460.938 219.348 461.089C219.359 461.24 219.333 461.381 219.265 461.516C218.796 462.902 216.744 479.886 215.452 491.199L221.15 500.954C221.281 501.167 221.307 501.396 221.229 501.636C221.15 501.876 220.999 502.048 220.765 502.146L210.999 506.485C210.89 506.532 210.775 506.558 210.656 506.558ZM200.932 499.407L210.697 504.771L219.223 500.99L213.854 491.808C213.76 491.646 213.723 491.469 213.744 491.287C214.827 481.803 216.609 466.662 217.458 462.048L202.296 462.923L203.057 489.391C203.057 489.459 203.051 489.527 203.036 489.594L200.932 499.407Z" fill="#065F46"/>
<path d="M150.146 274.734C149.922 268.52 151.083 263.687 152.813 259.963C154.313 256.697 156.438 253.916 159.198 251.619C161.901 249.374 164.156 248.557 164.156 248.557L144.245 235.65L129.312 258.697L150.146 274.734Z" fill="white"/>
<path d="M150.146 275.578C149.953 275.578 149.781 275.521 149.63 275.401L128.797 259.365C128.625 259.229 128.521 259.057 128.484 258.839C128.443 258.625 128.484 258.422 128.604 258.24L143.537 235.193C143.667 235 143.844 234.875 144.068 234.828C144.297 234.781 144.51 234.818 144.703 234.948L164.615 247.849C164.906 248.042 165.031 248.307 164.995 248.651C164.953 249 164.771 249.229 164.443 249.349C164.37 249.375 160.833 250.719 157.438 254.469C152.927 259.453 150.693 266.453 150.984 274.708C150.995 274.943 150.917 275.151 150.75 275.323C150.583 275.495 150.385 275.578 150.146 275.578ZM130.443 258.505L149.276 273.005C149.339 262.995 153.047 256.776 156.25 253.266C158.026 251.302 160.083 249.688 162.417 248.432L144.495 236.818L130.443 258.505Z" fill="#065F46"/>
<path d="M199.611 481.406H186.652C186.652 481.406 188.126 415.317 196.491 401.541L207.069 407.937L199.611 481.406Z" fill="#065F46"/>
<path d="M151.72 364.094L212.861 375.911C213.882 376.109 214.876 376.396 215.845 376.776C216.809 377.156 217.736 377.62 218.616 378.167C219.496 378.714 220.324 379.339 221.09 380.036C221.861 380.734 222.559 381.495 223.184 382.323C223.814 383.151 224.361 384.026 224.83 384.953C225.298 385.88 225.679 386.844 225.97 387.839C226.262 388.833 226.465 389.849 226.569 390.88C226.679 391.917 226.689 392.948 226.606 393.984L218.47 483.156L194.522 482.911C194.522 482.911 190.59 434.698 197.231 405.917C150.736 412.802 123.184 409.688 115.314 403.453C107.767 397.479 101.293 386.995 103.507 364.094H151.72Z" fill="#065F46"/>
<path d="M193.682 482.978C193.646 482.504 189.917 435.629 196.14 406.926C195.479 407.02 194.828 407.114 194.177 407.207L193.943 405.536C194.984 405.39 196.042 405.239 197.104 405.082C197.245 405.062 197.38 405.072 197.51 405.119C197.64 405.166 197.755 405.239 197.849 405.343C197.943 405.442 198.01 405.562 198.042 405.697C198.078 405.832 198.083 405.968 198.052 406.103C191.515 434.426 195.323 482.359 195.364 482.843L193.682 482.978Z" fill="white"/>
<path d="M152.354 266.563L132.958 252.969L125.792 260.76C125.792 260.76 101.703 306.813 97.5938 387.479C126.849 400.745 161.307 365.948 161.307 365.948L152.354 266.563Z" fill="#10B981"/>
<path d="M111.896 391.339C106.688 391.339 101.782 390.307 97.2504 388.25C96.9015 388.089 96.7348 387.823 96.7556 387.438C98.8806 345.682 106.448 313.375 112.428 293.625C118.907 272.198 124.98 260.484 125.042 260.37C125.079 260.302 125.12 260.24 125.167 260.188L132.339 252.401C132.485 252.245 132.662 252.156 132.87 252.135C133.079 252.109 133.271 252.162 133.443 252.281L152.839 265.87C153.053 266.021 153.167 266.224 153.193 266.484L162.146 365.87C162.167 366.13 162.089 366.354 161.907 366.542C161.818 366.63 153.068 375.401 140.839 382.422C133.636 386.557 126.641 389.287 120.047 390.542C117.355 391.063 114.641 391.328 111.896 391.339ZM98.4692 386.948C113.11 393.276 129.105 387.208 140 380.958C150.829 374.745 158.865 367.151 160.433 365.625L151.547 267.026L133.079 254.083L126.485 261.245C125.896 262.401 120.151 273.901 114.021 294.172C108.11 313.729 100.62 345.672 98.4692 386.948Z" fill="#065F46"/>
<path d="M76.0938 281.547C76.0938 282.182 76.1667 282.807 76.3021 283.422L103.063 411.818H115.802L93.0521 279.698C92.9427 279.188 92.7813 278.688 92.5781 278.208C92.3698 277.724 92.125 277.266 91.8385 276.828C91.5469 276.391 91.224 275.984 90.8594 275.609C90.4948 275.229 90.099 274.891 89.6771 274.583C89.25 274.276 88.7969 274.016 88.3229 273.792C87.849 273.568 87.3594 273.391 86.8542 273.261C86.349 273.125 85.8333 273.042 85.3073 273C84.7865 272.964 84.2656 272.974 83.7448 273.026C83.224 273.083 82.7135 273.188 82.2135 273.339C81.7083 273.49 81.224 273.682 80.7604 273.922C80.2917 274.162 79.8542 274.443 79.4375 274.761C79.0208 275.083 78.6406 275.438 78.2917 275.828C77.9427 276.214 77.6302 276.636 77.3542 277.083C77.0833 277.526 76.8542 277.995 76.6615 278.484C76.474 278.974 76.3333 279.474 76.2396 279.99C76.1406 280.505 76.0938 281.026 76.0938 281.547Z" fill="white"/>
<mask id="mask7_176_175" style="mask-type:luminance" maskUnits="userSpaceOnUse" x="74" y="271" width="43" height="142">
<path d="M74.9375 271.334H116.667V412.667H74.9375V271.334Z" fill="white"/>
</mask>
<g mask="url(#mask7_176_175)">
<path d="M115.802 412.662H103.062C102.864 412.662 102.687 412.6 102.531 412.475C102.375 412.35 102.281 412.188 102.239 411.991L75.4789 283.595C75.3434 282.996 75.2653 282.381 75.2549 281.761C75.2393 281.147 75.2861 280.532 75.3903 279.923C75.4997 279.313 75.6664 278.72 75.8903 278.142C76.1143 277.569 76.3903 277.017 76.7236 276.496C77.057 275.975 77.4372 275.491 77.8643 275.043C78.2914 274.595 78.7549 274.194 79.2653 273.84C79.7705 273.485 80.307 273.183 80.8747 272.933C81.4424 272.683 82.0257 272.496 82.6299 272.36C83.2341 272.225 83.8434 272.152 84.4632 272.142C85.083 272.126 85.6976 272.173 86.307 272.282C86.9164 272.392 87.5049 272.553 88.083 272.777C88.6611 273.001 89.208 273.282 89.7341 273.616C90.2549 273.944 90.7393 274.324 91.1872 274.751C91.6351 275.178 92.0361 275.647 92.3903 276.152C92.7445 276.657 93.0466 277.194 93.2966 277.761C93.5466 278.329 93.7393 278.912 93.8747 279.517C93.8799 279.527 93.8799 279.543 93.8851 279.558L116.635 411.678C116.656 411.798 116.651 411.918 116.619 412.043C116.583 412.162 116.531 412.267 116.448 412.36C116.369 412.459 116.271 412.532 116.161 412.584C116.047 412.636 115.927 412.662 115.802 412.662ZM103.75 410.975H114.802L92.2289 279.86C92.1247 279.402 91.9789 278.954 91.7914 278.522C91.6091 278.084 91.3851 277.673 91.1247 277.282C90.8643 276.886 90.5674 276.522 90.2393 276.183C89.9111 275.84 89.557 275.537 89.1716 275.261C88.7861 274.985 88.3799 274.751 87.9528 274.548C87.5257 274.35 87.083 274.188 86.6299 274.074C86.1716 273.954 85.708 273.876 85.2341 273.845C84.7653 273.808 84.2966 273.819 83.8278 273.871C83.3591 273.923 82.8955 274.017 82.4476 274.152C81.9945 274.287 81.557 274.465 81.1403 274.678C80.7184 274.892 80.3226 275.147 79.9476 275.433C79.5726 275.725 79.2289 276.043 78.9164 276.392C78.5986 276.746 78.3174 277.121 78.0726 277.527C77.8278 277.928 77.6195 278.35 77.4476 278.787C77.2809 279.23 77.1559 279.683 77.0674 280.147C76.9789 280.61 76.9372 281.079 76.9372 281.548C76.9372 282.121 76.9997 282.683 77.1247 283.246L103.75 410.975Z" fill="#065F46"/>
</g>
<path d="M185.121 312.827L217.694 300.374L221.48 293.213L227.855 282.104L231.345 283.692L227.283 293.994L238.798 290.531L252.288 285.479L253.59 288.484L240.147 294.77L257.069 289.807L258.074 292.869L241.152 299.13L256.689 295.609L257.272 298.64L242.293 303.145L255.043 301.13L255.428 303.968L243.048 307.583L220.621 313.676L190.673 329.749L185.121 312.827Z" fill="white"/>
<path d="M190.671 330.593C190.265 330.593 189.999 330.401 189.869 330.01L184.317 313.088C184.249 312.875 184.259 312.666 184.358 312.463C184.452 312.26 184.608 312.119 184.817 312.041L217.093 299.698L220.733 292.817L227.124 281.687C227.228 281.494 227.39 281.369 227.593 281.302C227.801 281.234 228.004 281.25 228.202 281.338L231.692 282.922C231.895 283.015 232.041 283.166 232.124 283.375C232.207 283.583 232.207 283.791 232.124 284L228.702 292.687L238.525 289.729L251.994 284.687C252.202 284.609 252.41 284.614 252.619 284.703C252.827 284.791 252.973 284.937 253.061 285.14L254.364 288.151C254.452 288.359 254.457 288.573 254.374 288.786C254.296 289 254.15 289.156 253.947 289.25L250.541 290.843L256.827 288.994C257.046 288.932 257.259 288.953 257.457 289.057C257.66 289.166 257.796 289.328 257.869 289.541L258.874 292.609C258.942 292.823 258.931 293.036 258.832 293.239C258.733 293.442 258.577 293.583 258.364 293.661L253.452 295.479L256.499 294.791C256.733 294.734 256.947 294.776 257.15 294.906C257.348 295.036 257.468 295.218 257.515 295.453L258.098 298.479C258.14 298.692 258.103 298.89 257.994 299.078C257.879 299.26 257.723 299.385 257.515 299.448L254.447 300.369L254.91 300.297C255.145 300.26 255.353 300.312 255.546 300.453C255.733 300.593 255.848 300.781 255.879 301.015L256.259 303.859C256.285 304.062 256.244 304.255 256.129 304.427C256.02 304.604 255.858 304.718 255.66 304.781L243.28 308.396L220.931 314.463L191.072 330.494C190.947 330.557 190.811 330.593 190.671 330.593ZM186.171 313.328L191.16 328.531L220.218 312.932C220.275 312.901 220.337 312.88 220.395 312.859L242.822 306.771L254.494 303.364L254.322 302.099L242.421 303.979C242.202 304.015 242.004 303.968 241.817 303.843C241.634 303.718 241.52 303.552 241.468 303.333C241.421 303.119 241.452 302.916 241.561 302.724C241.676 302.531 241.837 302.401 242.046 302.338L256.301 298.052L256.025 296.625L241.332 299.953C241.119 300 240.916 299.968 240.723 299.854C240.53 299.744 240.405 299.583 240.337 299.369C240.275 299.156 240.296 298.948 240.395 298.75C240.494 298.552 240.65 298.416 240.858 298.338L257.02 292.364L256.52 290.843L240.384 295.578C240.171 295.64 239.968 295.619 239.77 295.526C239.572 295.427 239.436 295.271 239.358 295.067C239.28 294.859 239.285 294.656 239.369 294.453C239.447 294.25 239.593 294.099 239.791 294.005L252.489 288.067L251.832 286.547L239.093 291.317C239.072 291.323 239.056 291.333 239.035 291.338L227.525 294.802C227.186 294.906 226.9 294.823 226.66 294.567C226.421 294.307 226.369 294.015 226.494 293.687L230.265 284.125L228.202 283.187L222.212 293.635L218.436 300.771C218.337 300.953 218.192 301.088 217.994 301.161L186.171 313.328Z" fill="#065F46"/>
<path d="M209.25 299.853C209.25 299.853 221.875 314.562 217.464 328.301C214.287 335.931 186.485 339.78 166.318 345.254C165.25 345.546 164.162 345.739 163.057 345.827C161.953 345.921 160.854 345.911 159.75 345.801C158.646 345.687 157.563 345.478 156.5 345.171C155.438 344.864 154.412 344.457 153.422 343.963C152.427 343.463 151.495 342.879 150.61 342.213C149.724 341.546 148.912 340.801 148.162 339.984C147.417 339.166 146.75 338.286 146.162 337.348C145.578 336.405 145.078 335.421 144.672 334.39C138.151 317.843 128.485 290.978 126.391 272.27C126.328 271.728 126.318 271.181 126.349 270.635C126.386 270.088 126.469 269.551 126.594 269.015C126.724 268.484 126.901 267.968 127.12 267.468C127.344 266.968 127.604 266.489 127.912 266.036C128.214 265.577 128.557 265.155 128.938 264.76C129.318 264.364 129.729 264.01 130.172 263.687C130.62 263.364 131.083 263.082 131.578 262.843C132.073 262.609 132.583 262.411 133.11 262.265C133.636 262.114 134.177 262.015 134.724 261.957C135.271 261.905 135.818 261.9 136.365 261.942C136.912 261.989 137.453 262.077 137.985 262.218C138.516 262.359 139.031 262.541 139.531 262.775C140.026 263.004 140.505 263.275 140.953 263.593C141.401 263.905 141.823 264.26 142.208 264.645C142.599 265.036 142.948 265.457 143.266 265.911C143.578 266.359 143.849 266.832 144.078 267.332L165.453 313.921L209.25 299.853Z" fill="#10B981"/>
<path d="M161.543 346.74C160.595 346.74 159.652 346.667 158.72 346.526C157.783 346.385 156.861 346.177 155.954 345.896C155.048 345.615 154.168 345.271 153.319 344.859C152.465 344.448 151.647 343.974 150.861 343.443C150.079 342.906 149.34 342.318 148.647 341.672C147.954 341.031 147.309 340.339 146.72 339.594C146.126 338.854 145.595 338.073 145.121 337.255C144.647 336.432 144.236 335.583 143.892 334.703C139.345 323.177 133.09 306.161 129.09 290.547L130.725 290.13C134.704 305.661 140.934 322.604 145.46 334.083C145.845 335.068 146.319 336.005 146.876 336.901C147.434 337.802 148.069 338.641 148.783 339.422C149.496 340.198 150.272 340.906 151.116 341.547C151.96 342.182 152.85 342.74 153.798 343.214C154.741 343.688 155.72 344.073 156.736 344.365C157.751 344.661 158.783 344.859 159.835 344.969C160.887 345.073 161.939 345.078 162.991 344.99C164.043 344.906 165.079 344.724 166.1 344.443C171.444 342.995 177.376 341.641 183.116 340.339C198.522 336.833 214.454 333.208 216.673 328.01C220.449 316.172 210.939 303.323 208.965 300.833L165.71 314.724C165.507 314.792 165.309 314.781 165.116 314.693C164.918 314.609 164.777 314.469 164.689 314.276L146.434 274.484L147.965 273.781L165.908 312.891L208.996 299.052C209.35 298.938 209.652 299.026 209.892 299.307C210.423 299.922 222.772 314.531 218.267 328.557C218.262 328.583 218.251 328.604 218.246 328.625C215.741 334.646 200.074 338.208 183.491 341.979C177.767 343.281 171.85 344.63 166.543 346.073C164.908 346.516 163.241 346.74 161.543 346.74Z" fill="#065F46"/>
<path d="M130.137 217.266L171.772 199.625L176.168 215.615C177.882 218 183.73 223.458 186.793 225.25C183.559 226.547 181.257 227.469 179.611 228.13L182.72 239.432C182.892 240.036 182.996 240.651 183.038 241.276C183.085 241.901 183.064 242.526 182.986 243.151C182.908 243.771 182.767 244.38 182.564 244.974C182.361 245.573 182.1 246.141 181.788 246.682C181.47 247.224 181.105 247.729 180.689 248.203C180.272 248.672 179.814 249.094 179.314 249.474C178.814 249.854 178.277 250.177 177.71 250.448C177.147 250.719 176.559 250.932 175.949 251.089C167.043 253.359 153.246 255.047 141.98 248.307L130.137 217.266Z" fill="white"/>
<path d="M160.932 253.928C158.333 253.938 155.755 253.72 153.192 253.277L153.484 251.616C161.786 253.089 170.187 251.694 175.776 250.261C176.328 250.121 176.864 249.923 177.374 249.678C177.89 249.428 178.374 249.131 178.828 248.787C179.281 248.438 179.697 248.053 180.072 247.626C180.453 247.199 180.781 246.735 181.067 246.246C181.354 245.751 181.588 245.235 181.77 244.694C181.953 244.152 182.078 243.6 182.151 243.032C182.223 242.47 182.239 241.902 182.197 241.334C182.156 240.761 182.062 240.204 181.906 239.652L178.796 228.355C178.739 228.147 178.76 227.949 178.854 227.756C178.953 227.563 179.098 227.428 179.296 227.345L184.979 225.069C181.708 222.725 177.041 218.272 175.484 216.105C175.427 216.027 175.38 215.933 175.354 215.839L171.213 200.777L131.213 217.73L141.114 243.678L139.541 244.277L129.348 217.569C129.265 217.355 129.27 217.147 129.359 216.938C129.447 216.73 129.598 216.579 129.807 216.491L171.437 198.85C171.677 198.746 171.906 198.756 172.135 198.866C172.364 198.975 172.515 199.152 172.583 199.402L176.942 215.241C178.713 217.626 184.317 222.829 187.213 224.527C187.515 224.704 187.656 224.964 187.63 225.313C187.604 225.662 187.427 225.902 187.104 226.037L180.624 228.631L183.536 239.209C183.713 239.866 183.833 240.532 183.88 241.214C183.927 241.897 183.911 242.574 183.822 243.251C183.734 243.928 183.583 244.589 183.364 245.235C183.145 245.881 182.864 246.501 182.526 247.089C182.182 247.683 181.786 248.23 181.338 248.746C180.885 249.256 180.385 249.72 179.843 250.131C179.302 250.543 178.723 250.897 178.109 251.194C177.494 251.491 176.854 251.725 176.197 251.897C172.187 252.923 166.765 253.928 160.932 253.928Z" fill="#065F46"/>
<path d="M174.557 197.073C174.557 197.073 171.333 220.709 146.51 232.047C145.615 238.214 146.693 247.985 140.276 264.219C139.964 265.016 139.573 265.776 139.109 266.5C138.646 267.224 138.12 267.896 137.531 268.516C136.938 269.136 136.292 269.698 135.589 270.193C134.891 270.688 134.151 271.115 133.37 271.469C132.583 271.823 131.776 272.099 130.943 272.297C130.104 272.495 129.26 272.61 128.401 272.646C127.547 272.677 126.693 272.631 125.844 272.5C124.995 272.37 124.167 272.162 123.359 271.87L113.562 268.365L128.068 235.631C128.068 235.631 105.135 210.323 132.776 191.891C160.422 173.453 174.557 197.073 174.557 197.073Z" fill="#065F46"/>
<path d="M122.141 216.036C122.214 216.827 122.198 217.619 122.089 218.411C121.984 219.208 121.787 219.984 121.5 220.749C121.214 221.515 120.844 222.249 120.391 222.958C119.938 223.666 119.412 224.327 118.807 224.952C118.203 225.572 117.537 226.14 116.807 226.65C116.078 227.166 115.297 227.614 114.469 227.999C113.641 228.379 112.781 228.692 111.886 228.937C110.99 229.176 110.078 229.338 109.151 229.426C108.219 229.515 107.297 229.525 106.37 229.458C105.443 229.39 104.542 229.244 103.656 229.025C102.766 228.801 101.917 228.51 101.104 228.14C100.292 227.775 99.5314 227.343 98.823 226.843C98.1147 226.348 97.4689 225.796 96.8907 225.187C96.3126 224.577 95.8126 223.921 95.3855 223.223C94.9637 222.531 94.6251 221.801 94.3699 221.041C94.1147 220.281 93.948 219.504 93.8751 218.713C93.8022 217.926 93.8178 217.129 93.922 216.338C94.0314 215.546 94.2293 214.765 94.5157 213.999C94.797 213.239 95.1668 212.499 95.6199 211.796C96.073 211.088 96.6043 210.421 97.2084 209.801C97.8074 209.182 98.4741 208.614 99.2032 208.098C99.9376 207.588 100.714 207.14 101.542 206.754C102.37 206.369 103.234 206.057 104.13 205.817C105.026 205.577 105.938 205.411 106.865 205.322C107.792 205.234 108.719 205.228 109.641 205.296C110.568 205.364 111.474 205.51 112.359 205.728C113.245 205.952 114.094 206.244 114.906 206.609C115.719 206.978 116.484 207.411 117.193 207.906C117.901 208.406 118.542 208.958 119.12 209.567C119.698 210.176 120.203 210.827 120.625 211.525C121.052 212.223 121.391 212.952 121.646 213.713C121.896 214.468 122.063 215.244 122.141 216.036Z" fill="#065F46"/>
<path d="M154.65 228.619C154.952 229.166 155.212 229.729 155.436 230.302C155.66 230.88 155.843 231.458 155.983 232.041C156.119 232.619 156.212 233.192 156.264 233.76C156.311 234.328 156.311 234.875 156.264 235.401C156.223 235.932 156.134 236.432 155.999 236.901C155.863 237.369 155.681 237.802 155.462 238.198C155.238 238.593 154.978 238.942 154.681 239.244C154.384 239.547 154.051 239.797 153.686 240C153.327 240.198 152.936 240.343 152.52 240.432C152.103 240.526 151.671 240.557 151.218 240.531C150.764 240.51 150.306 240.427 149.837 240.291C149.369 240.151 148.895 239.963 148.426 239.718C147.957 239.474 147.494 239.177 147.04 238.833C146.587 238.489 146.155 238.104 145.738 237.677C145.322 237.25 144.931 236.786 144.561 236.286C144.197 235.791 143.863 235.265 143.561 234.724C143.259 234.177 142.999 233.614 142.775 233.036C142.551 232.463 142.369 231.885 142.233 231.302C142.093 230.718 141.999 230.146 141.952 229.578C141.905 229.015 141.9 228.468 141.947 227.937C141.994 227.411 142.082 226.911 142.218 226.442C142.353 225.968 142.53 225.536 142.754 225.146C142.973 224.75 143.233 224.401 143.53 224.099C143.832 223.797 144.16 223.541 144.525 223.343C144.889 223.14 145.28 223 145.697 222.906C146.108 222.817 146.546 222.786 146.994 222.807C147.447 222.833 147.905 222.916 148.379 223.052C148.848 223.187 149.317 223.38 149.785 223.625C150.259 223.869 150.718 224.166 151.171 224.51C151.624 224.849 152.056 225.239 152.478 225.666C152.895 226.093 153.285 226.557 153.65 227.052C154.014 227.552 154.348 228.073 154.65 228.619Z" fill="white"/>
<path d="M151.543 241.37C148.46 241.37 144.955 238.99 142.824 235.13C141.522 232.761 140.913 230.183 141.111 227.87C141.314 225.427 142.387 223.563 144.121 222.604C145.856 221.651 148.007 221.745 150.179 222.88C152.236 223.953 154.09 225.844 155.392 228.214C156.064 229.422 156.548 230.698 156.85 232.047L155.205 232.412C154.939 231.219 154.507 230.094 153.913 229.026C152.772 226.948 151.168 225.292 149.402 224.375C147.746 223.511 146.158 223.407 144.934 224.084C143.71 224.755 142.944 226.151 142.788 228.011C142.621 229.995 143.158 232.235 144.304 234.313C146.606 238.5 150.637 240.714 153.293 239.255L154.106 240.735C153.309 241.167 152.455 241.38 151.543 241.37Z" fill="#065F46"/>
<path d="M163.254 322.079L164.259 314.24L165.931 314.454L164.926 322.292L163.254 322.079Z" fill="#065F46"/>
<path d="M171.219 216.817L172.807 216.26L174 219.682L172.411 220.234L171.219 216.817Z" fill="#065F46"/>
<path d="M219.329 497.291L215.074 499.77L204.913 490.202L200.397 489.369C200.397 489.369 196.522 495.895 197.308 505.025L197.798 515.135H201.626L202.543 505.713L208.96 515.135H240.501L222.418 501.926L219.329 497.291Z" fill="#065F46"/>
<mask id="mask8_176_175" style="mask-type:luminance" maskUnits="userSpaceOnUse" x="200" y="504" width="11" height="12">
<path d="M200.668 504.666H210.001V515.942H200.668V504.666Z" fill="white"/>
</mask>
<g mask="url(#mask8_176_175)">
<path d="M208.084 515.344L203.157 508.109C202.886 510.891 202.469 515.187 202.464 515.219L200.787 515.057C200.787 515.052 201.704 505.63 201.704 505.63C201.74 505.239 201.954 504.995 202.334 504.896C202.714 504.797 203.016 504.911 203.24 505.239L209.475 514.396L208.084 515.344Z" fill="white"/>
</g>
<path d="M196.947 515.021L196.463 505.068C196.171 501.62 196.473 498.224 197.359 494.875L198.989 495.307C198.151 498.474 197.869 501.687 198.145 504.953L198.63 514.943L196.947 515.021Z" fill="white"/>
<path d="M103.375 406.9H171.031C171.411 406.9 171.786 406.937 172.156 407.01C172.531 407.083 172.891 407.192 173.245 407.338C173.594 407.484 173.927 407.661 174.245 407.874C174.557 408.083 174.849 408.322 175.12 408.593C175.385 408.859 175.625 409.15 175.839 409.468C176.047 409.781 176.224 410.114 176.37 410.468C176.516 410.817 176.625 411.176 176.703 411.551C176.776 411.921 176.813 412.301 176.813 412.676C176.813 413.057 176.776 413.437 176.703 413.807C176.625 414.176 176.516 414.541 176.37 414.89C176.224 415.244 176.047 415.577 175.839 415.89C175.625 416.208 175.385 416.499 175.12 416.765C174.849 417.036 174.557 417.275 174.245 417.484C173.927 417.697 173.594 417.874 173.245 418.02C172.891 418.166 172.531 418.275 172.156 418.348C171.786 418.421 171.411 418.458 171.031 418.458H103.375C102.995 418.458 102.62 418.421 102.25 418.348C101.875 418.275 101.516 418.166 101.167 418.02C100.813 417.874 100.479 417.697 100.167 417.484C99.849 417.275 99.5573 417.036 99.2917 416.765C99.0208 416.499 98.7813 416.208 98.5677 415.89C98.3594 415.577 98.1823 415.244 98.0365 414.89C97.8906 414.541 97.7813 414.176 97.7083 413.807C97.6354 413.437 97.5938 413.057 97.5938 412.676C97.5938 412.301 97.6354 411.921 97.7083 411.551C97.7813 411.176 97.8906 410.817 98.0365 410.468C98.1823 410.114 98.3594 409.781 98.5677 409.468C98.7813 409.15 99.0208 408.859 99.2917 408.593C99.5573 408.322 99.849 408.083 100.167 407.874C100.479 407.661 100.813 407.484 101.167 407.338C101.516 407.192 101.875 407.083 102.25 407.01C102.62 406.937 102.995 406.9 103.375 406.9Z" fill="white"/>
<path d="M171.03 419.301H103.374C102.941 419.301 102.509 419.26 102.082 419.176C101.655 419.093 101.243 418.963 100.842 418.796C100.441 418.63 100.056 418.426 99.6966 418.187C99.332 417.947 98.9987 417.671 98.6914 417.364C98.3841 417.057 98.1081 416.718 97.8685 416.359C97.6289 415.999 97.4206 415.614 97.2539 415.213C97.0872 414.812 96.9622 414.395 96.8789 413.973C96.7956 413.546 96.7539 413.114 96.7539 412.676C96.7539 412.244 96.7956 411.812 96.8789 411.385C96.9622 410.958 97.0872 410.546 97.2539 410.145C97.4206 409.744 97.6289 409.359 97.8685 408.999C98.1081 408.635 98.3841 408.301 98.6914 407.994C98.9987 407.687 99.332 407.411 99.6966 407.171C100.056 406.932 100.441 406.723 100.842 406.557C101.243 406.395 101.655 406.265 102.082 406.182C102.509 406.098 102.941 406.057 103.374 406.057H171.03C171.462 406.057 171.895 406.098 172.322 406.182C172.749 406.265 173.16 406.395 173.566 406.557C173.967 406.723 174.348 406.932 174.707 407.171C175.072 407.411 175.405 407.687 175.712 407.994C176.02 408.301 176.296 408.635 176.535 408.999C176.78 409.359 176.983 409.744 177.15 410.145C177.316 410.546 177.441 410.958 177.525 411.385C177.613 411.812 177.655 412.244 177.655 412.676C177.655 413.114 177.613 413.546 177.525 413.973C177.441 414.395 177.316 414.812 177.15 415.213C176.983 415.614 176.78 415.999 176.535 416.359C176.296 416.718 176.02 417.057 175.712 417.364C175.405 417.671 175.072 417.947 174.707 418.187C174.348 418.426 173.967 418.63 173.566 418.796C173.16 418.963 172.749 419.093 172.322 419.176C171.895 419.26 171.462 419.301 171.03 419.301ZM103.374 407.739C102.723 407.739 102.092 407.864 101.488 408.119C100.879 408.369 100.348 408.723 99.8841 409.187C99.4206 409.65 99.0664 410.182 98.8112 410.791C98.5612 411.395 98.4362 412.025 98.4362 412.676C98.4362 413.333 98.5612 413.963 98.8112 414.567C99.0664 415.171 99.4206 415.708 99.8841 416.171C100.348 416.635 100.879 416.989 101.488 417.239C102.092 417.489 102.723 417.619 103.374 417.619H171.03C171.686 417.619 172.316 417.489 172.921 417.239C173.525 416.989 174.056 416.635 174.52 416.171C174.983 415.708 175.342 415.171 175.592 414.567C175.842 413.963 175.967 413.333 175.967 412.676C175.967 412.025 175.842 411.395 175.592 410.791C175.342 410.182 174.983 409.65 174.52 409.187C174.056 408.723 173.525 408.369 172.921 408.119C172.316 407.864 171.686 407.739 171.03 407.739H103.374Z" fill="#065F46"/>
<path d="M197.229 406.756C196.865 406.756 196.61 406.595 196.464 406.261C196.313 405.933 196.36 405.631 196.599 405.36L200.453 400.985L201.714 402.1L200.589 403.381C206.417 400.647 206.927 400.688 207.136 400.704L207 402.381C207.047 402.386 207.089 402.386 207.13 402.381C206.469 402.501 201.766 404.657 197.594 406.673C197.479 406.73 197.36 406.756 197.229 406.756Z" fill="white"/>
<path d="M176.12 236.339C172.375 236.339 170.521 231.563 170.438 231.339L172.016 230.74C172.031 230.787 173.807 235.339 176.891 234.553L177.307 236.183C176.917 236.287 176.521 236.339 176.12 236.339Z" fill="#065F46"/>
<path d="M168.624 219.473L166.941 219.338C166.957 219.15 167.353 214.718 170.79 212.854L171.598 214.333C168.967 215.76 168.624 219.437 168.624 219.473Z" fill="#065F46"/>
<path d="M403.453 339.922H494.526V348.714H403.453V339.922Z" fill="white"/>
<path d="M494.526 349.557H403.448C403.219 349.557 403.021 349.474 402.854 349.307C402.688 349.146 402.609 348.943 402.609 348.714V339.922C402.609 339.688 402.688 339.49 402.854 339.323C403.021 339.161 403.219 339.078 403.448 339.078H494.526C494.76 339.078 494.958 339.161 495.12 339.323C495.286 339.49 495.37 339.688 495.37 339.922V348.714C495.37 348.943 495.286 349.146 495.12 349.307C494.958 349.474 494.76 349.557 494.526 349.557ZM404.292 347.87H493.682V340.766H404.292V347.87Z" fill="#065F46"/>
<path d="M407.777 333.896H482.152V339.923H407.777V333.896Z" fill="#059669"/>
<path d="M482.152 340.765H407.777C407.543 340.765 407.345 340.682 407.178 340.515C407.017 340.354 406.934 340.156 406.934 339.921V333.895C406.934 333.666 407.017 333.468 407.178 333.301C407.345 333.135 407.543 333.057 407.777 333.057H482.152C482.382 333.057 482.585 333.135 482.746 333.301C482.913 333.468 482.996 333.666 482.996 333.895V339.921C482.996 340.156 482.913 340.354 482.746 340.515C482.585 340.682 482.382 340.765 482.152 340.765ZM408.621 339.077H481.309V334.739H408.621V339.077Z" fill="#065F46"/>
<path d="M400.871 328.775H474.059V333.895H400.871V328.775Z" fill="white"/>
<path d="M474.057 334.739H400.87C400.641 334.739 400.443 334.656 400.276 334.494C400.109 334.327 400.031 334.13 400.031 333.895V328.775C400.031 328.541 400.109 328.343 400.276 328.176C400.443 328.015 400.641 327.932 400.87 327.932H474.057C474.292 327.932 474.49 328.015 474.656 328.176C474.818 328.343 474.901 328.541 474.901 328.775V333.895C474.901 334.13 474.818 334.327 474.656 334.494C474.49 334.656 474.292 334.739 474.057 334.739ZM401.714 333.057H473.214V329.619H401.714V333.057Z" fill="#065F46"/>
</svg>
