<svg width="381" height="332" viewBox="0 0 381 332" fill="none" xmlns="http://www.w3.org/2000/svg">
<path d="M8.89442 171.661C8.89442 171.661 159.395 161.35 160.422 323.189C-1.41699 322.162 8.89442 171.661 8.89442 171.661Z" fill="#059669"/>
<path d="M169.228 332L160.369 331.938C108.169 331.616 67.5663 316.211 39.6819 286.18C-3.96007 239.146 -0.0180811 173.823 0.168643 171.074L0.687326 163.48L8.29121 162.941C8.29121 162.941 10.4386 162.785 14.2249 162.785C39.9309 162.785 168.201 170.524 169.176 323.141L169.228 332ZM17.5756 180.317C18.0632 198.17 22.5031 242.019 52.6178 274.395C75.4917 298.97 108.708 312.342 151.458 314.23C146.199 194.259 52.0992 181.064 17.5756 180.317Z" fill="#059669"/>
<path d="M179.929 11.9531C179.929 11.9531 293.645 111.084 179.929 226.252C66.2238 111.084 179.929 11.9531 179.929 11.9531Z" fill="#059669"/>
<mask id="mask0_180_16" style="mask-type:luminance" maskUnits="userSpaceOnUse" x="128" y="0" width="120" height="241">
<path d="M128.167 0H247.671V240.461H128.167V0Z" fill="white"/>
</mask>
<g mask="url(#mask0_180_16)">
<path d="M188.155 239.601L181.942 233.294C145.25 196.146 127.428 156.549 128.963 115.594C131.37 51.4747 180.323 8.08172 182.408 6.26633L188.155 1.25586L193.902 6.26633C195.988 8.08172 244.951 51.4747 247.358 115.594C248.883 156.549 231.061 196.146 194.38 233.294L188.155 239.601ZM188.155 25.136C175.863 38.1238 148.03 72.2531 146.443 116.414C145.229 149.962 159.265 182.909 188.155 214.466C217.056 182.909 231.082 149.962 229.878 116.414C228.291 72.2531 200.459 38.1238 188.155 25.136Z" fill="#059669"/>
</g>
<path d="M363.439 171.206C363.439 171.206 212.949 160.895 211.911 322.734C373.761 321.707 363.439 171.206 363.439 171.206Z" fill="#059669"/>
<path d="M211.337 332L211.399 323.141C212.374 170.524 340.634 162.785 366.34 162.785C370.126 162.785 372.274 162.941 372.274 162.941L379.857 163.48L380.407 171.074C380.593 173.823 384.535 239.135 340.883 286.18C313.009 316.211 272.407 331.616 220.186 331.938L211.337 332ZM363.01 180.317C328.497 181.064 234.366 194.238 229.107 314.22C271.929 312.342 305.177 298.929 328.061 274.271C358.207 241.791 362.564 198.118 363.01 180.317Z" fill="#059669"/>
</svg>
