<svg width="415" height="394" viewBox="0 0 415 394" fill="none" xmlns="http://www.w3.org/2000/svg">
<path d="M64.7708 136.676C77.9792 136.676 88.6458 140.645 96.7708 148.572C104.896 156.488 108.958 168.238 108.958 183.822V244.842H78.0625V188.572C78.0625 180.129 76.2083 173.822 72.5 169.655C68.8021 165.488 63.4583 163.405 56.4583 163.405C48.6667 163.405 42.4583 165.822 37.8333 170.655C33.2083 175.478 30.8958 182.634 30.8958 192.134V244.842H0V152.259C0 144.527 6.26801 138.259 14 138.259H29.5208V150.738C33.6146 146.238 38.6979 142.775 44.7708 140.342C50.8385 137.9 57.5052 136.676 64.7708 136.676Z" fill="white"/>
<path d="M228.21 138.258V230.841C228.21 238.573 221.942 244.841 214.21 244.841H198.897V232.154C194.798 236.779 189.908 240.315 184.23 242.758C178.548 245.201 172.402 246.424 165.793 246.424C151.793 246.424 140.694 242.398 132.501 234.341C124.319 226.289 120.23 214.336 120.23 198.487V138.258H151.147V193.924C151.147 211.091 158.34 219.674 172.73 219.674C180.132 219.674 186.074 217.268 190.564 212.445C195.064 207.628 197.314 200.461 197.314 190.945V138.258H228.21Z" fill="white"/>
<path d="M309.627 239.697C306.585 241.936 302.846 243.613 298.419 244.738C294.002 245.863 289.346 246.426 284.46 246.426C271.778 246.426 261.965 243.191 255.023 236.717C248.09 230.249 244.627 220.738 244.627 208.197V164.405H229.5V140.634H244.627V114.676H261.544C269.276 114.676 275.544 120.944 275.544 128.676V140.634H288.085C295.817 140.634 302.085 146.902 302.085 154.634V164.405H275.544V207.801C275.544 212.29 276.695 215.754 279.002 218.197C281.32 220.645 284.59 221.863 288.814 221.863C293.7 221.863 297.861 220.546 301.294 217.905L309.627 239.697Z" fill="white"/>
<path d="M340.521 152.322C344.214 147.171 349.193 143.275 355.458 140.634C361.734 137.999 368.969 136.676 377.167 136.676V158.247C377.167 161.997 373.979 164.801 370.229 164.801V164.801C361.38 164.801 354.443 167.28 349.417 172.238C344.401 177.186 341.896 184.608 341.896 194.509V244.842H311V152.259C311 144.527 317.268 138.259 325 138.259H340.521V152.322Z" fill="white"/>
<path d="M380.329 138.259H397.225C404.957 138.259 411.225 144.527 411.225 152.259V244.842H394.329C386.597 244.842 380.329 238.574 380.329 230.842V138.259ZM395.767 123.384C390.085 123.384 385.46 121.738 381.892 118.447C378.335 115.145 376.559 111.046 376.559 106.155C376.559 101.27 378.335 97.1758 381.892 93.8841C385.46 90.582 390.085 88.9258 395.767 88.9258C401.444 88.9258 406.064 90.5091 409.621 93.6758C413.189 96.8424 414.975 100.801 414.975 105.551C414.975 110.707 413.189 114.967 409.621 118.342C406.064 121.707 401.444 123.384 395.767 123.384Z" fill="white"/>
<path d="M111.081 59.4616C111.081 59.4616 163.212 55.8899 163.568 111.949C107.509 111.593 111.081 59.4616 111.081 59.4616Z" fill="white"/>
<path d="M166.618 115L163.55 114.979C145.468 114.868 131.404 109.532 121.745 99.1289C106.628 82.8369 107.994 60.21 108.058 59.2578L108.238 56.6275L110.872 56.4406C110.872 56.4406 111.616 56.3867 112.927 56.3867C121.832 56.3867 166.263 59.0673 166.6 111.932L166.618 115ZM114.088 62.4594C114.257 68.6434 115.795 83.8323 126.226 95.0469C134.149 103.559 145.655 108.191 160.463 108.845C158.641 67.2888 126.046 62.7181 114.088 62.4594Z" fill="white"/>
<path d="M170.325 4.14062C170.325 4.14062 209.715 38.4781 170.325 78.3708C130.939 38.4781 170.325 4.14062 170.325 4.14062Z" fill="white"/>
<mask id="mask0_174_55" style="mask-type:luminance" maskUnits="userSpaceOnUse" x="152" y="0" width="42" height="84">
<path d="M152.396 0H193.79V83.2925H152.396V0Z" fill="white"/>
</mask>
<g mask="url(#mask0_174_55)">
<path d="M173.175 82.995L171.022 80.8103C158.313 67.9427 152.139 54.2271 152.671 40.0408C153.505 17.8307 170.462 2.79993 171.184 2.17111L173.175 0.435547L175.165 2.17111C175.888 2.79993 192.848 17.8307 193.682 40.0408C194.21 54.2271 188.036 67.9427 175.331 80.8103L173.175 82.995ZM173.175 8.70731C168.917 13.2061 159.276 25.028 158.726 40.3247C158.306 51.9454 163.167 63.3577 173.175 74.2885C183.186 63.3577 188.044 51.9454 187.627 40.3247C187.077 25.028 177.436 13.2061 173.175 8.70731Z" fill="white"/>
</g>
<path d="M233.891 59.3034C233.891 59.3034 181.763 55.7317 181.403 111.791C237.466 111.435 233.891 59.3034 233.891 59.3034Z" fill="white"/>
<path d="M181.204 115L181.226 111.932C181.563 59.0673 225.991 56.3867 234.895 56.3867C236.207 56.3867 236.95 56.4406 236.95 56.4406L239.577 56.6275L239.768 59.2578C239.832 60.21 241.198 82.8333 226.077 99.1289C216.422 109.532 202.358 114.868 184.269 114.979L181.204 115ZM233.742 62.4594C221.787 62.7181 189.181 67.2816 187.359 108.842C202.193 108.191 213.709 103.545 221.636 95.0038C232.078 83.7532 233.587 68.6255 233.742 62.4594Z" fill="white"/>
<path d="M32.1042 278.75V315.417H96.2917V341.167H32.1042V391.688H0V253H104.813V278.75H32.1042Z" fill="white"/>
<path d="M114 253H146.104V391.688H114V253Z" fill="white"/>
<path d="M269.396 365.938V391.688H162V253H266.813V278.75H193.896V308.875H258.292V333.833H193.896V365.938H269.396Z" fill="white"/>
<path d="M279 255H340.449C355.125 255 368.101 257.875 379.37 263.625C390.634 269.365 399.389 277.453 405.635 287.896C411.877 298.328 415 310.479 415 324.354C415 338.219 411.877 350.37 405.635 360.813C399.389 371.245 390.634 379.333 379.37 385.083C368.101 390.823 355.125 393.688 340.449 393.688H279V255ZM338.885 367.333C352.414 367.333 363.2 363.474 371.244 355.75C379.299 348.031 383.331 337.563 383.331 324.354C383.331 311.146 379.299 300.682 371.244 292.958C363.2 285.224 352.414 281.354 338.885 281.354H310.303V367.333H338.885Z" fill="white"/>
</svg>
